<svg width="64" height="56" viewBox="0 0 64 56" fill="none" xmlns="http://www.w3.org/2000/svg">
<path d="M61.0311 0.532593H3.02002C1.78588 0.532593 0.788818 1.58687 0.788818 2.89182V39.4599C0.788818 40.7648 1.78588 41.8191 3.02002 41.8191H29.5155V50.0764H17.5228C16.9092 50.0764 16.4072 50.6072 16.4072 51.256V54.7948C16.4072 55.1192 16.6582 55.3847 16.965 55.3847H47.0862C47.393 55.3847 47.644 55.1192 47.644 54.7948V51.256C47.644 50.6072 47.1419 50.0764 46.5284 50.0764H34.5357V41.8191H61.0311C62.2653 41.8191 63.2623 40.7648 63.2623 39.4599V2.89182C63.2623 1.58687 62.2653 0.532593 61.0311 0.532593ZM58.2422 36.5108H5.80901V5.84086H58.2422V36.5108Z" fill="#5B5B5B"/>
</svg>
