<svg width="31" height="32" viewBox="0 0 31 32" fill="none" xmlns="http://www.w3.org/2000/svg">
<path d="M27.8397 5.33334C27.7224 5.32085 27.6041 5.32085 27.4867 5.33334H3.37558C3.22105 5.3358 3.06754 5.35971 2.91919 5.40445L15.3622 18.1956L27.8397 5.33334Z" fill="#093159"/>
<path d="M29.1141 6.56885L16.5763 19.4577C16.2536 19.7889 15.8171 19.9747 15.3621 19.9747C14.9072 19.9747 14.4707 19.7889 14.148 19.4577L1.72214 6.66663C1.68394 6.81155 1.66369 6.96089 1.66187 7.11107V24.8888C1.66187 25.3603 1.84331 25.8125 2.16629 26.1459C2.48927 26.4793 2.92733 26.6666 3.38409 26.6666H27.4952C27.952 26.6666 28.39 26.4793 28.713 26.1459C29.036 25.8125 29.2174 25.3603 29.2174 24.8888V7.11107C29.2106 6.92587 29.1757 6.74292 29.1141 6.56885ZM4.56381 24.8888H3.36687V23.6177L9.62714 17.2088L10.8413 18.4622L4.56381 24.8888ZM27.478 24.8888H26.2724L19.9949 18.4622L21.2091 17.2088L27.4694 23.6177L27.478 24.8888Z" fill="#093159"/>
</svg>
