<svg width="31" height="33" viewBox="0 0 31 33" fill="none" xmlns="http://www.w3.org/2000/svg">
<path d="M27.8395 5.38705C27.7221 5.37456 27.6038 5.37456 27.4864 5.38705H3.37533C3.2208 5.38951 3.06729 5.41343 2.91895 5.45816L15.362 18.2493L27.8395 5.38705Z" fill="#3C3C3C"/>
<path d="M29.1143 6.62256L16.5766 19.5114C16.2539 19.8426 15.8174 20.0284 15.3624 20.0284C14.9074 20.0284 14.4709 19.8426 14.1482 19.5114L1.72239 6.72034C1.68419 6.86526 1.66393 7.0146 1.66211 7.16478V24.9426C1.66211 25.4141 1.84356 25.8662 2.16654 26.1996C2.48952 26.533 2.92757 26.7203 3.38433 26.7203H27.4954C27.9522 26.7203 28.3903 26.533 28.7132 26.1996C29.0362 25.8662 29.2177 25.4141 29.2177 24.9426V7.16478C29.2108 6.97959 29.1759 6.79663 29.1143 6.62256V6.62256ZM4.56405 24.9426H3.36711V23.6714L9.62739 17.2626L10.8416 18.5159L4.56405 24.9426ZM27.4782 24.9426H26.2727L19.9952 18.5159L21.2093 17.2626L27.4696 23.6714L27.4782 24.9426Z" fill="#3C3C3C"/>
</svg>
