<svg width="20" height="25" viewBox="0 0 20 25" fill="none" xmlns="http://www.w3.org/2000/svg">
<path d="M5.30729 0.128173C6.0241 -0.070438 6.79331 -0.0374419 7.48688 0.221669C8.18044 0.48078 8.75651 0.950373 9.1192 1.55228L9.24042 1.77658L10.3249 3.99102C10.654 4.66315 10.7608 5.40937 10.6321 6.13686C10.5033 6.86436 10.1447 7.54102 9.6008 8.08268L9.38293 8.2814L7.67437 9.74615C7.36641 10.0141 7.59738 11.0513 8.7113 12.8247C9.71383 14.4204 10.5296 15.1656 10.931 15.2062H11.0014L11.0882 15.1912L14.4464 14.2473C14.8977 14.1201 15.3793 14.115 15.8337 14.2328C16.288 14.3505 16.6958 14.586 17.0084 14.9112L17.1574 15.0843L19.3804 17.9144C19.816 18.4692 20.0331 19.1437 19.9959 19.8269C19.9587 20.5102 19.6694 21.1614 19.1756 21.6734L18.9758 21.8631L18.0879 22.6368C17.2906 23.3307 16.2933 23.7996 15.2145 23.9877C14.1357 24.1759 13.0207 24.0754 12.0023 23.6982C8.83253 22.5239 5.95271 19.8413 3.33663 15.6774C0.715644 11.5029 -0.373705 7.8644 0.112817 4.74823C0.26004 3.80626 0.682129 2.91851 1.33426 2.17927C1.98638 1.44003 2.8442 0.876899 3.8166 0.549684L4.13276 0.453339L5.30729 0.128173Z" fill="#3C3C3C"/>
</svg>
