<svg width="44" height="44" viewBox="0 0 44 44" fill="none" xmlns="http://www.w3.org/2000/svg">
<path d="M8.62689 0.0109863C3.88734 0.0109863 0.00830078 3.88994 0.00830078 8.62957V35.3746C0.00830078 40.1141 3.88725 43.9918 8.62689 43.9918H35.3719C40.1115 43.9918 43.9891 40.1142 43.9891 35.3746V8.62957C43.9891 3.89003 40.1115 0.0109863 35.3719 0.0109863H8.62689ZM10.7946 7.2687C13.0671 7.2687 14.4669 8.76056 14.5101 10.7216C14.5101 12.6393 13.067 14.1731 10.7506 14.1731H10.708C8.47874 14.1731 7.03787 12.6394 7.03787 10.7216C7.03787 8.76061 8.52234 7.2687 10.7945 7.2687H10.7946ZM30.3781 16.4343C34.7486 16.4343 38.0249 19.2909 38.0249 25.4295V36.8893H31.3829V26.1979C31.3829 23.5112 30.4217 21.6783 28.018 21.6783C26.183 21.6783 25.0893 22.9137 24.6091 24.1071C24.4336 24.5341 24.3905 25.1305 24.3905 25.7278V36.8893H17.7486C17.7486 36.8893 17.8357 18.7783 17.7486 16.903H24.3919V19.7333C25.2745 18.3715 26.8533 16.4343 30.3781 16.4343V16.4343ZM7.42965 16.9045H14.0716V36.8894H7.42965V16.9045Z" fill="white"/>
</svg>
