<svg width="20" height="24" viewBox="0 0 20 24" fill="none" xmlns="http://www.w3.org/2000/svg">
<path d="M5.30729 0.127747C6.0241 -0.0702036 6.79331 -0.0373174 7.48688 0.220931C8.18044 0.47918 8.75651 0.947211 9.1192 1.54711L9.24042 1.77067L10.3249 3.97774C10.654 4.64764 10.7608 5.39137 10.6321 6.11644C10.5033 6.84151 10.1447 7.51592 9.6008 8.05579L9.38293 8.25384L7.67437 9.71371C7.36641 9.98078 7.59738 11.0146 8.7113 12.782C9.71383 14.3724 10.5296 15.1151 10.931 15.1556H11.0014L11.0882 15.1406L14.4464 14.1999C14.8977 14.0731 15.3793 14.0681 15.8337 14.1854C16.288 14.3028 16.6958 14.5375 17.0084 14.8615L17.1574 15.0341L19.3804 17.8548C19.816 18.4077 20.0331 19.08 19.9959 19.761C19.9587 20.4419 19.6694 21.091 19.1756 21.6013L18.9758 21.7903L18.0879 22.5615C17.2906 23.2531 16.2933 23.7204 15.2145 23.9079C14.1357 24.0954 13.0207 23.9953 12.0023 23.6193C8.83253 22.449 5.95271 19.7753 3.33663 15.6252C0.715644 11.4647 -0.373705 7.83823 0.112817 4.73243C0.26004 3.79359 0.682129 2.9088 1.33426 2.17202C1.98638 1.43524 2.8442 0.873981 3.8166 0.547855L4.13276 0.451831L5.30729 0.127747Z" fill="#093159"/>
</svg>
